Coordinates
version=1
nRows=7
nColumns=40
inDegrees=yes

Units are S.I. units (second, meters, Newtons, ...)
Angles are in degrees.

endheader
time	pelvis_tilt	pelvis_list	pelvis_rotation	pelvis_tx	pelvis_ty	pelvis_tz	hip_flexion_r	hip_adduction_r	hip_rotation_r	knee_angle_r	knee_angle_r_beta	ankle_angle_r	subtalar_angle_r	mtp_angle_r	hip_flexion_l	hip_adduction_l	hip_rotation_l	knee_angle_l	knee_angle_l_beta	ankle_angle_l	subtalar_angle_l	mtp_angle_l	lumbar_extension	lumbar_bending	lumbar_rotation	arm_flex_r	arm_add_r	arm_rot_r	elbow_flex_r	pro_sup_r	wrist_flex_r	wrist_dev_r	arm_flex_l	arm_add_l	arm_rot_l	elbow_flex_l	pro_sup_l	wrist_flex_l	wrist_dev_l
     25.03000000	     -2.04954090	     -4.54043937	     -4.17236304	      0.95995782	      0.93239471	      0.44975603	     20.07523579	     -6.90352585	     -8.92148259	     59.60102533	     59.60102533	      9.95250345	    -19.20031132	     14.46496625	     14.69969939	     -3.24569644	     -5.07869509	     24.60173584	     24.60173584	     14.36337520	    -15.73087509	      4.19246709	     -9.88242800	      3.81251674	      1.91393281	     18.40502545	    -12.42750472	     -0.62902402	     50.81545883	     44.05268394	      0.00000000	      0.00000000	     16.59449659	    -15.48533300	      3.77873468	     42.25459358	     44.20740685	      0.00000000	      0.00000000
     25.04878571	     -1.88626427	     -4.70374585	     -4.66112715	      0.95888026	      0.93106347	      0.44883301	     21.51119987	     -6.57660397	     -8.64151504	     59.37876129	     59.37876129	     10.16763315	    -19.22303593	     14.43210679	     14.60142527	     -3.38043203	     -5.22241586	     25.53111272	     25.53111272	     14.94425016	    -16.28026719	      3.99601222	    -10.21134625	      4.15599793	      2.19113355	     15.71343509	    -12.79380486	     -0.35185689	     48.80658930	     44.11925745	      0.00000000	      0.00000000	     18.00142856	    -15.45360130	      3.42040406	     43.39037715	     44.29271476	      0.00000000	      0.00000000
     25.06757143	     -1.69650808	     -4.87466649	     -5.16332612	      0.95781167	      0.92987154	      0.44795569	     22.83238443	     -6.18546507	     -8.35987055	     58.84363464	     58.84363464	     10.31117616	    -19.24740871	     14.55404220	     14.40548095	     -3.52954645	     -5.44366102	     26.37068299	     26.37068299	     15.62057549	    -16.65466337	      4.02599645	    -10.58393066	      4.49593896	      2.53588128	     13.14984456	    -13.18486212	     -0.11942223	     46.15374904	     44.21777023	      0.00000000	      0.00000000	     19.40569410	    -15.38165325	      2.94507203	     44.73850677	     44.39793017	      0.00000000	      0.00000000
     25.08635714	     -1.54516563	     -5.05703042	     -5.63516136	      0.95667139	      0.92866887	      0.44719552	     24.07163869	     -5.75386647	     -8.16760190	     57.99840286	     57.99840286	     10.46443109	    -19.24884977	     14.66319763	     14.24707016	     -3.70154434	     -5.67292862	     27.20073838	     27.20073838	     16.33483215	    -16.94487546	      4.18186659	    -10.93518899	      4.85757829	      2.77977831	     10.79228301	    -13.47049020	      0.02884591	     43.24887963	     44.33105500	      0.00000000	      0.00000000	     20.74226221	    -15.35950665	      2.39388407	     46.13956737	     44.50885836	      0.00000000	      0.00000000
     25.10514286	     -1.41584738	     -5.24172557	     -6.05130724	      0.95553239	      0.92762888	      0.44653504	     25.17807071	     -5.30002320	     -8.05100673	     56.79296558	     56.79296558	     10.49358109	    -19.22395175	     14.68503200	     14.04933968	     -3.87539461	     -5.89733708	     27.90469674	     27.90469674	     17.04908880	    -17.10578501	      4.41571500	    -11.27089249	      5.23246104	      2.91668091	      8.58604021	    -13.62358493	      0.08276522	     40.26996460	     44.45275548	      0.00000000	      0.00000000	     21.98008663	    -15.38815202	      1.76756250	     47.57664460	     44.62368805	      0.00000000	      0.00000000
     25.12392857	     -1.35203378	     -5.32648556	     -6.45072892	      0.95434374	      0.92681978	      0.44602138	     26.17801407	     -4.93008316	     -7.94853646	     55.17189786	     55.17189786	     10.21132687	    -19.18661076	     13.81294519	     13.86620541	     -3.93672300	     -6.10591786	     28.50122870	     28.50122870	     18.27963649	    -16.98305654	      6.11634758	    -11.46046691	      5.49838438	      1.74609059	      8.64167432	    -12.72968207	     -1.00697436	     33.36835012	     44.90676573	      0.00000000	      0.00000000	     21.99010227	    -15.95084599	     -0.71449006	     50.10597223	     45.04925817	      0.00000000	      0.00000000
     25.14271429	     -1.33572021	     -5.52288945	     -6.80271871	      0.95319307	      0.92628126	      0.44578698	     27.00192215	     -4.38137717	     -7.90152341	     53.14440308	     53.14440308	     10.06368091	    -19.06334746	     13.64006550	     13.58295520	     -4.14479947	     -6.33510648	     28.77516281	     28.77516281	     18.68203552	    -17.07684189	      5.98825140	    -11.69891628	      5.90543639	      1.88974762	      6.20527953	    -13.11850646	     -1.09025533	     31.85946486	     44.97134660	      0.00000000	      0.00000000	     23.17750297	    -15.98977212	     -1.15196696	     51.39217779	     45.13343729	      0.00000000	      0.00000000
